<svg id="visual" viewBox="0 0 960 300" width="960" height="300" xmlns="http://www.w3.org/2000/svg" xmlns:xlink="http://www.w3.org/1999/xlink" version="1.1"><rect x="0" y="0" width="960" height="300" fill="#001220"></rect><path d="M0 220L20 223.3C40 226.7 80 233.3 120 225.5C160 217.7 200 195.3 240 194.8C280 194.3 320 215.7 360 220.2C400 224.7 440 212.3 480 206.8C520 201.3 560 202.7 600 198.2C640 193.7 680 183.3 720 183.7C760 184 800 195 840 199.8C880 204.7 920 203.3 940 202.7L960 202L960 301L940 301C920 301 880 301 840 301C800 301 760 301 720 301C680 301 640 301 600 301C560 301 520 301 480 301C440 301 400 301 360 301C320 301 280 301 240 301C200 301 160 301 120 301C80 301 40 301 20 301L0 301Z" fill="#8fbbfd"></path><path d="M0 219L20 215.8C40 212.7 80 206.3 120 205.5C160 204.7 200 209.3 240 214.2C280 219 320 224 360 226.2C400 228.3 440 227.7 480 223.2C520 218.7 560 210.3 600 207C640 203.7 680 205.3 720 213.5C760 221.7 800 236.3 840 239.7C880 243 920 235 940 231L960 227L960 301L940 301C920 301 880 301 840 301C800 301 760 301 720 301C680 301 640 301 600 301C560 301 520 301 480 301C440 301 400 301 360 301C320 301 280 301 240 301C200 301 160 301 120 301C80 301 40 301 20 301L0 301Z" fill="#65a0ff"></path><path d="M0 260L20 255.3C40 250.7 80 241.3 120 243.2C160 245 200 258 240 258C280 258 320 245 360 238C400 231 440 230 480 232C520 234 560 239 600 244.5C640 250 680 256 720 255C760 254 800 246 840 246C880 246 920 254 940 258L960 262L960 301L940 301C920 301 880 301 840 301C800 301 760 301 720 301C680 301 640 301 600 301C560 301 520 301 480 301C440 301 400 301 360 301C320 301 280 301 240 301C200 301 160 301 120 301C80 301 40 301 20 301L0 301Z" fill="#3a84ff"></path><path d="M0 279L20 279.3C40 279.7 80 280.3 120 279.5C160 278.7 200 276.3 240 272C280 267.7 320 261.3 360 259.5C400 257.7 440 260.3 480 264.3C520 268.3 560 273.7 600 277.5C640 281.3 680 283.7 720 281.5C760 279.3 800 272.7 840 269.5C880 266.3 920 266.7 940 266.8L960 267L960 301L940 301C920 301 880 301 840 301C800 301 760 301 720 301C680 301 640 301 600 301C560 301 520 301 480 301C440 301 400 301 360 301C320 301 280 301 240 301C200 301 160 301 120 301C80 301 40 301 20 301L0 301Z" fill="#0066ff"></path></svg>