<svg id="visual" viewBox="0 0 960 300" width="960" height="300" xmlns="http://www.w3.org/2000/svg" xmlns:xlink="http://www.w3.org/1999/xlink" version="1.1"><rect x="0" y="0" width="960" height="300" fill="#001220"></rect><path d="M0 200L20 201.5C40 203 80 206 120 208.7C160 211.3 200 213.7 240 211.8C280 210 320 204 360 197C400 190 440 182 480 178.3C520 174.7 560 175.3 600 184.5C640 193.7 680 211.3 720 215.7C760 220 800 211 840 206C880 201 920 200 940 199.5L960 199L960 301L940 301C920 301 880 301 840 301C800 301 760 301 720 301C680 301 640 301 600 301C560 301 520 301 480 301C440 301 400 301 360 301C320 301 280 301 240 301C200 301 160 301 120 301C80 301 40 301 20 301L0 301Z" fill="#8fbbfd"></path><path d="M0 235L20 237.5C40 240 80 245 120 246.8C160 248.7 200 247.3 240 241.2C280 235 320 224 360 223.8C400 223.7 440 234.3 480 236C520 237.7 560 230.3 600 230.2C640 230 680 237 720 241.2C760 245.3 800 246.7 840 245.2C880 243.7 920 239.3 940 237.2L960 235L960 301L940 301C920 301 880 301 840 301C800 301 760 301 720 301C680 301 640 301 600 301C560 301 520 301 480 301C440 301 400 301 360 301C320 301 280 301 240 301C200 301 160 301 120 301C80 301 40 301 20 301L0 301Z" fill="#65a0ff"></path><path d="M0 242L20 239.2C40 236.3 80 230.7 120 231.3C160 232 200 239 240 243C280 247 320 248 360 248.2C400 248.3 440 247.7 480 247C520 246.3 560 245.7 600 243.2C640 240.7 680 236.3 720 239.3C760 242.3 800 252.7 840 252.7C880 252.7 920 242.3 940 237.2L960 232L960 301L940 301C920 301 880 301 840 301C800 301 760 301 720 301C680 301 640 301 600 301C560 301 520 301 480 301C440 301 400 301 360 301C320 301 280 301 240 301C200 301 160 301 120 301C80 301 40 301 20 301L0 301Z" fill="#3a84ff"></path><path d="M0 286L20 284.2C40 282.3 80 278.7 120 273.2C160 267.7 200 260.3 240 262.2C280 264 320 275 360 279.3C400 283.7 440 281.3 480 276C520 270.7 560 262.3 600 263.2C640 264 680 274 720 278.5C760 283 800 282 840 280C880 278 920 275 940 273.5L960 272L960 301L940 301C920 301 880 301 840 301C800 301 760 301 720 301C680 301 640 301 600 301C560 301 520 301 480 301C440 301 400 301 360 301C320 301 280 301 240 301C200 301 160 301 120 301C80 301 40 301 20 301L0 301Z" fill="#0066ff"></path></svg>